<?xml version="1.0" standalone="no"?>
<!DOCTYPE svg PUBLIC "-//W3C//DTD SVG 20010904//EN"
 "http://www.w3.org/TR/2001/REC-SVG-20010904/DTD/svg10.dtd">
<svg version="1.0" xmlns="http://www.w3.org/2000/svg"
 width="875.000000pt" height="875.000000pt" viewBox="0 0 875.000000 875.000000"
 preserveAspectRatio="xMidYMid meet">
<metadata>
Created by potrace 1.14, written by Peter Selinger 2001-2017
</metadata>
<g transform="translate(0.000000,875.000000) scale(0.100000,-0.100000)"
fill="#000000" stroke="none">
<path d="M2155 5343 c16 -188 40 -321 85 -454 107 -321 302 -585 581 -788 106
-78 101 -74 129 -90 169 -97 362 -182 535 -233 116 -35 382 -92 470 -102 33
-3 69 -8 80 -10 22 -4 164 -17 235 -22 70 -4 490 -4 540 1 25 2 79 7 120 10
41 3 89 8 105 10 634 83 1084 274 1411 599 168 167 277 332 367 552 60 148
119 461 108 572 -1 9 -59 12 -256 12 -140 0 -256 -3 -256 -7 -1 -5 -3 -24 -4
-43 -4 -71 -17 -186 -26 -230 -5 -25 -11 -57 -14 -72 -13 -68 -18 -89 -51
-187 -159 -475 -514 -808 -1020 -956 -49 -15 -100 -29 -114 -31 -14 -3 -33 -7
-42 -10 -19 -5 -32 -8 -103 -19 -27 -5 -52 -9 -55 -10 -9 -2 -134 -17 -180
-22 -89 -8 -407 -9 -485 -2 -44 4 -105 10 -135 13 -163 16 -366 63 -525 123
-362 135 -642 379 -801 695 -108 215 -166 438 -179 687 l-3 66 -261 3 -260 2
4 -57z"/>
</g>
</svg>
